<svg xmlns="http://www.w3.org/2000/svg" viewBox="0 10.690000534057617 317.67999267578125 39.11000442504883" data-asc="0.9814453125" width="317.67999267578125" height="39.11000442504883"><defs/><g><g fill="#000000"><g transform="translate(0, 0)"><path d="M9.89 16.85Q8.18 16.85 6.35 16.87Q4.52 16.89 2.34 16.89Q1.76 16.89 1.32 16.63Q0.88 16.36 0.59 15.93Q0.29 15.50 0.15 14.97Q0 14.43 0 13.89Q0 12.45 0.81 11.90Q1.61 11.35 3.42 11.35L22.90 11.35Q23.39 11.35 23.91 11.47Q24.44 11.60 24.87 11.91Q25.29 12.23 25.57 12.74Q25.85 13.26 25.85 14.06Q25.85 14.65 25.66 15.19Q25.46 15.72 25.13 16.11Q24.80 16.50 24.35 16.75Q23.90 16.99 23.39 16.99Q23.00 16.99 22.63 16.92Q22.27 16.85 21.85 16.85L15.55 16.85L15.48 44.38Q15.48 44.97 15.56 45.53Q15.65 46.09 15.65 46.75Q15.65 47.29 15.55 47.83Q15.45 48.36 15.14 48.80Q14.82 49.24 14.23 49.52Q13.65 49.80 12.70 49.80Q11.57 49.80 10.99 49.43Q10.40 49.05 10.14 48.46Q9.89 47.88 9.86 47.17Q9.84 46.46 9.84 45.80L9.89 16.85ZM32.03 46.90Q32.03 46.04 32.06 45.19Q32.08 44.34 32.10 43.31L32.10 24.49Q32.10 23.80 31.96 23.11Q31.81 22.41 31.81 21.66Q31.81 20.36 32.74 19.68Q33.67 18.99 35.25 18.99Q35.94 18.99 36.45 19.23Q36.96 19.46 37.30 19.82Q37.65 20.19 37.82 20.65Q37.99 21.12 37.99 21.61Q37.99 22.02 37.93 22.45Q37.87 22.88 37.79 23.29Q41.53 22.36 44.15 21.61Q46.78 20.85 48.27 20.36Q48.58 19.80 49.16 19.40Q49.73 18.99 50.66 18.99Q52.00 18.99 52.80 19.69Q53.59 20.39 53.59 21.44Q53.59 21.85 53.54 22.29Q53.49 22.73 53.49 23.17Q53.34 24.66 53.43 26.20Q53.52 27.73 53.64 29.30Q53.69 29.79 53.70 30.33Q53.71 30.88 53.71 31.45Q53.71 32.03 53.42 32.42Q53.13 32.81 52.67 33.04Q52.22 33.28 51.68 33.37Q51.15 33.47 50.63 33.47Q49.90 33.47 49.41 33.22Q48.93 32.96 48.62 32.56Q48.32 32.15 48.18 31.65Q48.05 31.15 48.05 30.66Q48.05 29.54 48.07 28.38Q48.10 27.22 48.12 25.83Q47.19 26.05 45.57 26.42Q43.95 26.78 42.02 27.20Q40.92 27.47 39.84 27.70Q38.77 27.93 37.67 28.17L37.67 44.12L38.40 43.90Q38.89 43.73 39.33 43.59Q39.77 43.46 40.33 43.41Q40.80 43.46 41.25 43.63Q41.70 43.80 42.05 44.12Q42.41 44.43 42.63 44.91Q42.85 45.39 42.85 46.00Q42.85 46.56 42.66 47.07Q42.48 47.58 42.16 47.99Q41.85 48.39 41.42 48.65Q40.99 48.90 40.48 48.93Q40.14 48.97 39.55 49.08Q38.96 49.19 38.18 49.34Q36.94 49.58 36.17 49.68Q35.40 49.78 34.89 49.78Q34.33 49.78 33.80 49.60Q33.28 49.41 32.89 49.05Q32.50 48.68 32.26 48.14Q32.03 47.61 32.03 46.90ZM60.16 34.42Q60.16 31.10 61.28 28.25Q62.40 25.39 64.37 23.29Q66.33 21.19 68.98 20.00Q71.63 18.80 74.71 18.80Q76.27 18.80 77.70 19.17Q79.13 19.53 80.36 20.13Q81.59 20.73 82.58 21.48Q83.57 22.24 84.28 23.05Q84.25 22.71 84.25 22.31Q84.25 21.92 84.25 21.63Q84.25 21.02 84.42 20.50Q84.59 19.97 84.96 19.58Q85.33 19.19 85.89 18.96Q86.45 18.73 87.26 18.73Q87.94 18.73 88.49 18.98Q89.04 19.24 89.43 19.62Q89.82 20.00 90.04 20.42Q90.26 20.85 90.26 21.19Q90.26 22.02 90.17 22.86Q90.09 23.71 90.04 24.56Q90.04 27.25 90.00 29.31Q89.97 31.37 89.92 33.11Q89.87 34.28 89.84 35.53Q89.82 36.79 89.82 37.84Q89.82 40.21 89.82 41.60Q89.82 42.99 89.94 43.63Q90.16 43.58 90.59 43.41Q91.02 43.24 91.38 43.04Q91.72 42.92 92.07 42.80Q92.41 42.68 92.92 42.68Q93.51 42.68 93.95 42.93Q94.38 43.19 94.69 43.59Q95.00 43.99 95.14 44.49Q95.29 45.00 95.29 45.46Q95.29 46.12 94.97 46.79Q94.65 47.46 93.80 47.75Q93.07 48.02 92.31 48.32Q91.55 48.61 90.78 48.85Q90.01 49.10 89.25 49.27Q88.48 49.44 87.67 49.44Q86.72 49.44 86.11 49.05Q85.50 48.66 85.16 48.03Q84.81 47.41 84.67 46.66Q84.52 45.90 84.50 45.17Q83.74 46.12 82.67 46.95Q81.59 47.78 80.30 48.41Q79.00 49.05 77.53 49.41Q76.05 49.78 74.49 49.78Q71.31 49.78 68.68 48.62Q66.04 47.46 64.15 45.40Q62.26 43.33 61.21 40.53Q60.16 37.72 60.16 34.42M65.77 34.42Q65.77 36.40 66.37 38.23Q66.97 40.06 68.10 41.47Q69.24 42.87 70.90 43.70Q72.56 44.53 74.66 44.53Q76.73 44.53 78.42 43.73Q80.10 42.92 81.36 41.63Q82.62 40.33 83.42 38.73Q84.23 37.13 84.52 35.52L84.52 33.37Q84.25 31.88 83.51 30.22Q82.76 28.56 81.56 27.16Q80.35 25.76 78.66 24.84Q76.98 23.93 74.85 23.93Q72.85 23.93 71.19 24.74Q69.53 25.56 68.32 26.99Q67.11 28.42 66.44 30.32Q65.77 32.23 65.77 34.42ZM103.20 47.27Q103.20 46.83 103.23 46.36Q103.27 45.90 103.32 45.46Q103.39 44.80 103.47 44.02Q103.54 43.24 103.54 42.26Q103.54 40.36 103.53 38.66Q103.52 36.96 103.47 35.16Q103.47 35.11 103.47 35.00Q103.47 34.89 103.45 34.55Q103.44 34.20 103.43 33.54Q103.42 32.89 103.39 31.69Q103.37 30.49 103.33 28.70Q103.30 26.90 103.25 24.32Q102.93 24.37 102.50 24.40Q102.08 24.44 101.49 24.44Q101.05 24.44 100.60 24.29Q100.15 24.15 99.77 23.84Q99.39 23.54 99.16 23.03Q98.93 22.53 98.93 21.80Q98.93 20.48 99.60 19.81Q100.27 19.14 101.25 19.14Q101.64 19.14 102.00 19.24Q102.37 19.34 102.78 19.34Q103.27 19.34 103.78 19.31Q104.30 19.29 104.79 19.24Q105.32 19.19 105.85 19.17Q106.37 19.14 106.79 19.14Q107.79 19.14 108.45 19.80Q109.11 20.46 109.11 21.66Q109.11 21.95 109.09 22.34Q109.08 22.73 109.03 23.10Q109.86 22.29 110.91 21.56Q111.96 20.83 113.20 20.25Q114.43 19.68 115.84 19.34Q117.26 18.99 118.85 18.99Q121.95 18.99 124.28 20.01Q126.61 21.02 128.19 22.94Q129.76 24.85 130.55 27.64Q131.35 30.42 131.35 33.96Q131.35 35.03 131.20 36.21Q131.05 37.38 130.80 38.55Q130.54 39.72 130.19 40.88Q129.83 42.04 129.39 43.07Q129.96 42.90 130.47 42.77Q130.98 42.65 131.32 42.60Q134.06 42.33 134.06 45.09Q134.06 45.43 133.98 45.84Q133.91 46.24 133.69 46.62Q133.47 47.00 133.08 47.33Q132.69 47.66 132.08 47.88L129.44 48.49Q128.22 48.85 127.48 49.11Q126.73 49.37 126.23 49.52Q125.73 49.68 125.39 49.74Q125.05 49.80 124.63 49.78Q124.05 49.78 123.61 49.50Q123.17 49.22 122.88 48.79Q122.58 48.36 122.44 47.85Q122.29 47.34 122.29 46.85Q122.29 46.07 122.51 45.26Q122.73 44.46 123.29 43.80Q123.97 42.92 124.45 41.82Q124.93 40.72 125.22 39.45Q125.51 38.18 125.65 36.79Q125.78 35.40 125.78 33.96Q125.78 32.30 125.43 30.58Q125.07 28.86 124.23 27.45Q123.39 26.05 122.01 25.16Q120.63 24.27 118.55 24.27Q117.11 24.27 115.73 24.72Q114.36 25.17 113.10 25.92Q111.84 26.66 110.74 27.61Q109.64 28.56 108.81 29.57Q108.79 30.66 108.78 31.77Q108.76 32.89 108.76 34.01Q108.72 35.91 108.69 37.79Q108.67 39.67 108.67 41.60Q108.67 42.16 108.67 42.74Q108.67 43.31 108.72 43.95L109.38 43.75Q109.64 43.68 109.90 43.62Q110.16 43.55 110.35 43.55Q111.67 43.55 112.35 44.20Q113.04 44.85 113.04 46.09Q113.04 47.02 112.67 47.57Q112.30 48.12 111.74 48.43Q111.18 48.73 110.51 48.85Q109.84 48.97 109.20 49.05Q108.86 49.10 108.54 49.13Q108.23 49.17 108.01 49.24Q107.23 49.46 106.67 49.62Q106.10 49.78 105.69 49.78Q104.25 49.78 103.72 49.12Q103.20 48.46 103.20 47.27ZM138.87 42.75Q138.87 42.19 139.14 41.72Q139.40 41.26 139.81 40.93Q140.21 40.60 140.70 40.42Q141.19 40.23 141.65 40.23Q142.21 40.23 142.60 40.36Q142.99 40.48 143.29 40.70Q143.58 40.92 143.80 41.21Q144.02 41.50 144.26 41.85Q145.24 43.31 147.12 44.10Q149.00 44.90 152.03 44.90Q153.27 44.90 154.38 44.68Q155.49 44.46 156.34 44.02Q157.18 43.58 157.68 42.94Q158.18 42.31 158.18 41.48Q158.18 40.36 157.53 39.58Q156.88 38.79 155.82 38.23Q154.76 37.67 153.42 37.28Q152.08 36.89 150.66 36.52Q149.37 36.21 148.05 35.83Q146.73 35.45 145.48 34.95Q144.24 34.45 143.15 33.75Q142.07 33.06 141.26 32.10Q140.45 31.15 139.98 29.90Q139.50 28.64 139.50 27.00Q139.50 24.80 140.54 23.28Q141.58 21.75 143.23 20.80Q144.87 19.85 146.90 19.42Q148.93 18.99 150.88 18.99Q152.00 18.99 152.93 19.12Q153.86 19.24 154.66 19.43Q155.47 19.63 156.20 19.91Q156.93 20.19 157.67 20.48Q157.76 20.12 157.97 19.74Q158.18 19.36 158.47 19.06Q158.76 18.75 159.16 18.55Q159.55 18.36 160.03 18.36Q161.23 18.36 161.89 18.82Q162.55 19.29 162.55 20.46Q162.55 21.39 162.48 22.39Q162.40 23.39 162.40 24.58Q162.52 24.88 162.57 25.23Q162.62 25.59 162.62 25.85Q162.62 26.44 162.43 26.84Q162.23 27.25 161.89 27.50Q161.55 27.76 161.10 27.88Q160.64 28.00 160.11 28.00Q159.62 28.00 159.17 27.83Q158.72 27.66 158.35 27.38Q157.98 27.10 157.71 26.73Q157.45 26.37 157.30 25.98Q156.91 25.66 156.31 25.26Q155.71 24.85 154.90 24.51Q154.08 24.17 153.03 23.94Q151.98 23.71 150.71 23.71Q149.46 23.71 148.40 23.94Q147.34 24.17 146.57 24.61Q145.80 25.05 145.36 25.66Q144.92 26.27 144.92 27.03Q144.92 28.00 145.52 28.70Q146.12 29.39 147.12 29.92Q148.12 30.44 149.45 30.86Q150.78 31.27 152.22 31.67Q154.20 32.20 156.21 32.86Q158.23 33.52 159.85 34.56Q161.47 35.60 162.50 37.17Q163.53 38.75 163.53 41.11Q163.53 42.94 162.96 44.29Q162.40 45.63 161.47 46.59Q160.55 47.56 159.31 48.18Q158.08 48.80 156.75 49.16Q155.42 49.51 154.05 49.65Q152.69 49.78 151.46 49.78Q149.76 49.78 148.17 49.46Q146.58 49.15 145.18 48.61Q143.77 48.07 142.61 47.36Q141.46 46.66 140.63 45.87Q139.79 45.09 139.33 44.29Q138.87 43.48 138.87 42.75ZM171.22 46.36Q171.22 45.65 171.42 44.96Q171.63 44.26 171.63 43.48L171.26 14.33Q171.29 12.48 171.91 11.58Q172.53 10.69 174.05 10.69Q174.88 10.69 175.44 10.84Q176.00 10.99 176.34 11.35Q176.68 11.72 176.82 12.30Q176.95 12.89 176.95 13.77L176.95 17.43Q176.95 18.95 176.94 21.03Q176.93 23.12 176.93 25.49Q176.93 27.86 176.93 30.38Q176.93 32.91 176.93 35.31Q176.93 37.72 176.93 39.87Q176.93 42.02 176.95 43.63Q179.81 43.63 181.77 43.62Q183.74 43.60 185.01 43.55Q185.69 43.51 186.38 43.40Q187.06 43.29 187.84 43.29Q189.45 43.29 190.30 44.02Q191.14 44.75 191.14 46.17Q191.14 47.12 190.77 47.69Q190.41 48.27 189.81 48.57Q189.21 48.88 188.46 48.97Q187.72 49.07 186.96 49.07L174.00 49.07Q173.39 49.07 172.88 48.96Q172.36 48.85 172.00 48.56Q171.63 48.27 171.42 47.74Q171.22 47.22 171.22 46.36ZM196.00 34.42Q196.00 31.10 197.12 28.25Q198.24 25.39 200.21 23.29Q202.17 21.19 204.82 20.00Q207.47 18.80 210.55 18.80Q212.11 18.80 213.54 19.17Q214.97 19.53 216.20 20.13Q217.43 20.73 218.42 21.48Q219.41 22.24 220.12 23.05Q220.09 22.71 220.09 22.31Q220.09 21.92 220.09 21.63Q220.09 21.02 220.26 20.50Q220.43 19.97 220.80 19.58Q221.17 19.19 221.73 18.96Q222.29 18.73 223.10 18.73Q223.78 18.73 224.33 18.98Q224.88 19.24 225.27 19.62Q225.66 20.00 225.88 20.42Q226.10 20.85 226.10 21.19Q226.10 22.02 226.01 22.86Q225.93 23.71 225.88 24.56Q225.88 27.25 225.84 29.31Q225.81 31.37 225.76 33.11Q225.71 34.28 225.68 35.53Q225.66 36.79 225.66 37.84Q225.66 40.21 225.66 41.60Q225.66 42.99 225.78 43.63Q226.00 43.58 226.43 43.41Q226.86 43.24 227.22 43.04Q227.56 42.92 227.91 42.80Q228.25 42.68 228.76 42.68Q229.35 42.68 229.79 42.93Q230.22 43.19 230.53 43.59Q230.83 43.99 230.98 44.49Q231.13 45.00 231.13 45.46Q231.13 46.12 230.81 46.79Q230.49 47.46 229.64 47.75Q228.91 48.02 228.15 48.32Q227.39 48.61 226.62 48.85Q225.85 49.10 225.09 49.27Q224.32 49.44 223.51 49.44Q222.56 49.44 221.95 49.05Q221.34 48.66 221.00 48.03Q220.65 47.41 220.51 46.66Q220.36 45.90 220.34 45.17Q219.58 46.12 218.51 46.95Q217.43 47.78 216.14 48.41Q214.84 49.05 213.37 49.41Q211.89 49.78 210.33 49.78Q207.15 49.78 204.52 48.62Q201.88 47.46 199.99 45.40Q198.10 43.33 197.05 40.53Q196.00 37.72 196.00 34.42M201.61 34.42Q201.61 36.40 202.21 38.23Q202.81 40.06 203.94 41.47Q205.08 42.87 206.74 43.70Q208.40 44.53 210.50 44.53Q212.57 44.53 214.26 43.73Q215.94 42.92 217.20 41.63Q218.46 40.33 219.26 38.73Q220.07 37.13 220.36 35.52L220.36 33.37Q220.09 31.88 219.35 30.22Q218.60 28.56 217.40 27.16Q216.19 25.76 214.50 24.84Q212.82 23.93 210.69 23.93Q208.69 23.93 207.03 24.74Q205.37 25.56 204.16 26.99Q202.95 28.42 202.28 30.32Q201.61 32.23 201.61 34.42ZM239.09 41.99L238.94 24.78L235.99 24.80Q235.42 24.80 235.01 24.57Q234.59 24.34 234.31 23.94Q234.03 23.54 233.89 23.02Q233.74 22.51 233.74 21.95Q233.74 21.00 233.97 20.50Q234.20 20.00 234.64 19.76Q235.08 19.53 235.72 19.49Q236.35 19.46 237.18 19.46L238.92 19.46L238.92 18.55Q238.92 17.65 238.90 17.09Q238.89 16.53 238.89 16.33Q238.89 15.63 238.76 14.92Q238.62 14.21 238.62 13.48Q238.62 12.87 238.77 12.40Q238.92 11.94 239.27 11.61Q239.62 11.28 240.21 11.11Q240.80 10.94 241.65 10.94Q242.24 10.94 242.76 11.04Q243.29 11.13 243.69 11.41Q244.09 11.69 244.34 12.18Q244.58 12.67 244.58 13.45Q244.58 14.50 244.40 15.53Q244.21 16.55 244.24 17.65L244.24 19.43Q246.14 19.38 247.20 19.36Q248.27 19.34 248.93 19.31Q249.02 19.31 249.11 19.30Q249.19 19.29 249.27 19.29Q249.56 19.26 249.93 19.26Q250.29 19.26 250.51 19.26Q250.98 19.26 251.42 19.41Q251.86 19.56 252.19 19.90Q252.51 20.24 252.71 20.78Q252.91 21.31 252.91 22.07Q252.91 22.66 252.81 23.17Q252.71 23.68 252.44 24.07Q252.17 24.46 251.66 24.69Q251.15 24.93 250.34 24.93Q249.58 24.93 248.82 24.84Q248.05 24.76 247.24 24.73L244.29 24.76L244.46 44.02Q245.46 43.85 246.22 43.70Q246.97 43.55 247.63 43.41Q248.29 43.26 248.93 43.07Q249.56 42.87 250.32 42.58Q250.73 42.36 251.29 42.13Q251.86 41.89 252.47 41.89Q253.66 41.89 254.35 42.71Q255.03 43.53 255.03 44.85Q255.03 45.19 254.87 45.61Q254.71 46.02 254.39 46.42Q254.08 46.83 253.58 47.16Q253.08 47.49 252.39 47.63Q251.66 47.78 250.71 48.00Q249.76 48.22 248.71 48.46Q247.66 48.71 246.61 48.95Q245.56 49.19 244.63 49.38Q243.70 49.56 242.99 49.68Q242.29 49.80 241.92 49.78Q241.48 49.78 240.95 49.67Q240.43 49.56 239.99 49.28Q239.55 49.00 239.27 48.50Q238.99 48.00 238.99 47.22L239.09 41.99ZM265.26 38.06Q265.72 39.89 266.64 41.13Q267.55 42.36 268.70 43.12Q269.85 43.87 271.13 44.20Q272.41 44.53 273.63 44.53Q275.54 44.53 277.03 44.20Q278.52 43.87 279.58 43.40Q280.64 42.92 281.30 42.41Q281.96 41.89 282.23 41.50Q282.47 41.14 282.78 40.81Q283.08 40.48 283.44 40.22Q283.79 39.97 284.14 39.82Q284.50 39.67 284.81 39.67Q286.04 39.67 286.71 40.39Q287.38 41.11 287.38 42.33Q287.38 42.80 287.04 43.51Q286.69 44.21 285.77 45.07Q284.74 46.02 283.48 46.88Q282.23 47.73 280.71 48.38Q279.20 49.02 277.43 49.40Q275.66 49.78 273.61 49.78Q271.19 49.78 269.19 49.13Q267.19 48.49 265.60 47.38Q264.01 46.26 262.84 44.80Q261.67 43.33 260.89 41.67Q260.11 40.01 259.72 38.26Q259.33 36.50 259.33 34.84Q259.33 31.23 260.50 28.31Q261.67 25.39 263.72 23.32Q265.77 21.24 268.58 20.12Q271.39 18.99 274.66 18.99Q277.00 18.99 279.05 19.69Q281.10 20.39 282.70 21.64Q284.30 22.90 285.39 24.65Q286.47 26.39 286.91 28.49Q287.40 28.91 287.63 29.58Q287.87 30.25 287.87 30.91Q287.87 32.01 287.12 32.70Q286.38 33.40 285.25 33.67Q282.79 34.30 280.32 34.84Q277.86 35.38 275.37 35.89Q272.88 36.40 270.35 36.94Q267.82 37.48 265.26 38.06M264.84 33.54Q268.99 32.57 273.24 31.71Q277.49 30.86 281.88 29.81Q281.47 28.69 280.76 27.67Q280.05 26.66 279.10 25.90Q278.15 25.15 276.99 24.71Q275.83 24.27 274.49 24.27Q272.41 24.27 270.72 24.94Q269.02 25.61 267.77 26.82Q266.53 28.03 265.77 29.75Q265.01 31.47 264.84 33.54ZM296.00 46.90Q296.00 46.04 296.02 45.19Q296.04 44.34 296.07 43.31L296.07 24.49Q296.07 23.80 295.92 23.11Q295.78 22.41 295.78 21.66Q295.78 20.36 296.70 19.68Q297.63 18.99 299.22 18.99Q299.90 18.99 300.42 19.23Q300.93 19.46 301.27 19.82Q301.61 20.19 301.78 20.65Q301.95 21.12 301.95 21.61Q301.95 22.02 301.89 22.45Q301.83 22.88 301.76 23.29Q305.49 22.36 308.12 21.61Q310.74 20.85 312.23 20.36Q312.55 19.80 313.12 19.40Q313.70 18.99 314.62 18.99Q315.97 18.99 316.76 19.69Q317.55 20.39 317.55 21.44Q317.55 21.85 317.50 22.29Q317.46 22.73 317.46 23.17Q317.31 24.66 317.40 26.20Q317.48 27.73 317.60 29.30Q317.65 29.79 317.66 30.33Q317.68 30.88 317.68 31.45Q317.68 32.03 317.38 32.42Q317.09 32.81 316.64 33.04Q316.19 33.28 315.65 33.37Q315.11 33.47 314.60 33.47Q313.87 33.47 313.38 33.22Q312.89 32.96 312.59 32.56Q312.28 32.15 312.15 31.65Q312.01 31.15 312.01 30.66Q312.01 29.54 312.04 28.38Q312.06 27.22 312.08 25.83Q311.16 26.05 309.53 26.42Q307.91 26.78 305.98 27.20Q304.88 27.47 303.81 27.70Q302.73 27.93 301.64 28.17L301.64 44.12L302.37 43.90Q302.86 43.73 303.30 43.59Q303.74 43.46 304.30 43.41Q304.76 43.46 305.21 43.63Q305.66 43.80 306.02 44.12Q306.37 44.43 306.59 44.91Q306.81 45.39 306.81 46.00Q306.81 46.56 306.63 47.07Q306.45 47.58 306.13 47.99Q305.81 48.39 305.38 48.65Q304.96 48.90 304.44 48.93Q304.10 48.97 303.52 49.08Q302.93 49.19 302.15 49.34Q300.90 49.58 300.13 49.68Q299.37 49.78 298.85 49.78Q298.29 49.78 297.77 49.60Q297.24 49.41 296.85 49.05Q296.46 48.68 296.23 48.14Q296.00 47.61 296.00 46.90Z"/></g></g></g></svg>