<?xml version="1.0" standalone="no"?>
<!DOCTYPE svg PUBLIC "-//W3C//DTD SVG 20010904//EN"
 "http://www.w3.org/TR/2001/REC-SVG-20010904/DTD/svg10.dtd">
<svg version="1.0" xmlns="http://www.w3.org/2000/svg"
 width="512.000000pt" height="512.000000pt" viewBox="0 0 512.000000 512.000000"
 preserveAspectRatio="xMidYMid meet">

<g transform="translate(0.000000,512.000000) scale(0.100000,-0.100000)"
fill="#000000" stroke="none">
<path d="M1050 5111 c-44 -14 -84 -39 -112 -68 -35 -37 -929 -2157 -936 -2220
-8 -71 15 -131 72 -188 54 -54 103 -75 172 -75 49 0 130 38 168 78 19 20 70
127 141 294 l112 263 453 0 453 0 112 -263 c116 -273 137 -307 207 -343 97
-50 195 -33 274 45 57 58 80 118 72 189 -7 63 -901 2183 -936 2220 -15 16 -45
38 -67 49 -43 22 -144 33 -185 19z m196 -1138 l121 -288 -123 -3 c-68 -1 -180
-1 -248 0 l-123 3 121 288 c66 158 123 287 126 287 3 0 60 -129 126 -287z"/>
<path d="M3040 4467 c-49 -16 -133 -102 -148 -153 -28 -94 -8 -169 63 -239 55
-56 102 -75 182 -75 208 0 441 -99 599 -255 159 -157 243 -345 262 -585 10
-123 27 -165 88 -219 100 -88 238 -80 327 19 59 65 72 114 63 239 -34 521
-347 966 -825 1172 -201 86 -495 132 -611 96z"/>
<path d="M3920 2547 c-49 -16 -133 -102 -148 -153 -7 -24 -12 -100 -12 -178
l0 -136 -336 0 c-235 0 -349 -4 -378 -12 -55 -16 -138 -99 -154 -154 -28 -94
-8 -169 63 -239 58 -58 102 -75 196 -75 l64 0 22 -109 c55 -266 171 -520 335
-729 l49 -63 -63 -28 c-35 -16 -173 -71 -308 -122 -231 -89 -248 -97 -295
-144 -102 -100 -102 -229 0 -331 57 -57 117 -80 188 -72 51 6 549 199 668 258
46 24 107 58 136 76 l52 33 63 -38 c115 -70 220 -117 499 -225 174 -66 291
-106 314 -106 94 0 180 57 221 144 44 95 27 184 -51 261 -47 47 -64 55 -295
144 -135 52 -273 107 -308 122 l-63 28 49 63 c164 209 280 463 335 729 l22
109 66 0 c94 0 150 22 202 80 90 100 90 220 0 320 -70 78 -81 80 -475 80
l-338 0 0 136 c0 163 -10 200 -67 264 -65 72 -158 97 -253 67z m366 -985 c-9
-57 -52 -185 -91 -268 -34 -75 -122 -215 -169 -269 l-26 -30 -26 30 c-115 135
-236 384 -260 537 l-7 38 293 0 293 0 -7 -38z"/>
<path d="M800 2227 c-54 -17 -133 -102 -150 -160 -24 -89 3 -323 56 -485 178
-536 653 -903 1215 -938 138 -9 190 7 252 76 87 97 90 219 6 314 -54 61 -96
78 -219 88 -240 19 -424 101 -584 261 -155 156 -256 391 -256 600 0 74 -19
123 -67 177 -65 72 -158 97 -253 67z"/>
</g>
</svg>
